<?xml version="1.0" encoding="UTF-8" standalone="no"?>
<!-- Created with Inkscape (http://www.inkscape.org/) -->

<svg
   xmlns:dc="http://purl.org/dc/elements/1.1/"
   xmlns:cc="http://creativecommons.org/ns#"
   xmlns:rdf="http://www.w3.org/1999/02/22-rdf-syntax-ns#"
   xmlns:svg="http://www.w3.org/2000/svg"
   xmlns="http://www.w3.org/2000/svg"
   xmlns:sodipodi="http://sodipodi.sourceforge.net/DTD/sodipodi-0.dtd"
   xmlns:inkscape="http://www.inkscape.org/namespaces/inkscape"
   width="600mm"
   height="210mm"
   viewBox="0 0 600 210"
   version="1.1"
   id="svg8"
   inkscape:version="0.92.2 (5c3e80d, 2017-08-06)"
   sodipodi:docname="birretta2 finale finale e logo.svg">
  <defs
     id="defs2">
    <marker
       inkscape:stockid="Arrow1Lend"
       orient="auto"
       refY="0"
       refX="0"
       id="Arrow1Lend"
       style="overflow:visible"
       inkscape:isstock="true">
      <path
         id="path4405"
         d="M 0,0 5,-5 -12.5,0 5,5 Z"
         style="fill:#333333;fill-opacity:1;fill-rule:evenodd;stroke:none;stroke-width:1.00000003pt;stroke-opacity:1"
         transform="matrix(-0.8,0,0,-0.8,-10,0)"
         inkscape:connector-curvature="0" />
    </marker>
  </defs>
  <sodipodi:namedview
     id="base"
     pagecolor="#ffffff"
     bordercolor="#666666"
     borderopacity="1.0"
     inkscape:pageopacity="0.0"
     inkscape:pageshadow="2"
     inkscape:zoom="0.5"
     inkscape:cx="936.57767"
     inkscape:cy="390.41077"
     inkscape:document-units="mm"
     inkscape:current-layer="layer1"
     showgrid="false"
     inkscape:showpageshadow="true"
     showborder="true"
     inkscape:window-width="1920"
     inkscape:window-height="1051"
     inkscape:window-x="-9"
     inkscape:window-y="-9"
     inkscape:window-maximized="1"
     inkscape:object-nodes="false"
     width="500mm"
     inkscape:snap-text-baseline="false" />
  <metadata
     id="metadata5">
    <rdf:RDF>
      <cc:Work
         rdf:about="">
        <dc:format>image/svg+xml</dc:format>
        <dc:type
           rdf:resource="http://purl.org/dc/dcmitype/StillImage" />
        <dc:title></dc:title>
      </cc:Work>
    </rdf:RDF>
  </metadata>
  <g
     inkscape:label="Layer 1"
     inkscape:groupmode="layer"
     id="layer1"
     transform="translate(0,-87)"
     style="opacity:1">
    <path
       style="color:#000000;font-style:normal;font-variant:normal;font-weight:normal;font-stretch:normal;font-size:medium;line-height:normal;font-family:sans-serif;text-indent:0;text-align:start;text-decoration:none;text-decoration-line:none;text-decoration-style:solid;text-decoration-color:#000000;letter-spacing:normal;word-spacing:normal;text-transform:none;writing-mode:lr-tb;direction:ltr;baseline-shift:baseline;text-anchor:start;white-space:normal;clip-rule:nonzero;display:inline;overflow:visible;visibility:visible;opacity:1;isolation:auto;mix-blend-mode:normal;color-interpolation:sRGB;color-interpolation-filters:linearRGB;solid-color:#000000;solid-opacity:1;fill:#333333;fill-opacity:1;fill-rule:nonzero;stroke:none;stroke-width:7.9369998;stroke-linecap:butt;stroke-linejoin:round;stroke-miterlimit:4;stroke-dasharray:none;stroke-dashoffset:0;stroke-opacity:1;color-rendering:auto;image-rendering:auto;shape-rendering:auto;text-rendering:auto;enable-background:accumulate"
       d="m 70.067437,274.47518 c 0.09574,0.023 0.411925,0.0981 0.677432,0.16122 -0.253897,-0.047 -0.519721,-0.0961 -0.51965,-0.0961 4.5e-5,0 -0.08902,-0.0367 -0.157782,-0.0651 z m 100.297063,-0.0111 c -0.0841,0.0348 -0.18013,0.0754 -0.18006,0.0754 5e-5,0 -0.23727,0.0432 -0.47337,0.0876 0.26418,-0.066 0.56194,-0.14007 0.65343,-0.16291 z m -2.67542,-0.0807 c 0.20426,0.0373 1.59798,0.291 1.68587,0.30697 -0.0175,0.003 -0.0944,0.0171 -0.0944,0.0171 1e-4,0 -1.49213,-0.25042 -1.49205,-0.25039 0,0 -0.0864,-0.0641 -0.0996,-0.0736 z m -94.968548,-0.009 c -0.01782,0.0134 -0.116628,0.0857 -0.116616,0.0857 6e-5,-5e-5 -1.475006,0.24695 -1.47491,0.24695 0,0 -0.059,-0.01 -0.06856,-0.0111 0.06945,-0.0134 1.425622,-0.27531 1.660131,-0.32069 z m -3.071563,-0.0892 c 0.07744,0.0389 0.101232,0.0512 0.180077,0.0908 -0.03011,-0.0111 -0.09608,-0.0396 -0.09603,-0.0396 8.8e-5,0 -0.06348,-0.0397 -0.08404,-0.0515 z m 101.118551,-0.007 c -0.0249,0.0147 -0.0945,0.0567 -0.0943,0.0567 3e-5,0 -0.0649,0.0271 -0.0944,0.0395 0.0768,-0.0394 0.10618,-0.0538 0.18865,-0.0961 z m -96.599494,-1.1421 c -0.06525,0.11794 -0.164658,0.29674 -0.16464,0.2967 1.6e-5,-3e-5 -0.376613,0.27639 -0.749462,0.55052 0.363499,-0.33707 0.766216,-0.71006 0.914102,-0.84722 z m 92.053014,-0.0206 c 0.14857,0.1372 0.59837,0.55302 0.96899,0.89526 -0.39795,-0.29675 -0.81465,-0.60716 -0.81463,-0.60713 10e-6,10e-6 -0.0947,-0.17719 -0.15436,-0.28813 z m -98.167014,-0.61912 c 0.03984,0.10207 0.08447,0.20224 0.133764,0.30011 -0.0569,-0.10228 -0.08951,-0.19674 -0.133764,-0.30011 z m 104.301594,-0.024 c -0.0485,0.1161 -0.0863,0.22137 -0.15092,0.33615 0.0561,-0.10934 0.10662,-0.22152 0.15092,-0.33615 z m -97.688544,-0.3908 -0.06175,0.26409 c 9e-6,-10e-6 -0.09477,0.17163 -0.152628,0.27613 0.101005,-0.25452 0.176179,-0.44388 0.214373,-0.54022 z m 91.060024,-0.036 c 0.0373,0.0962 0.10947,0.28269 0.20926,0.54022 -0.0593,-0.11007 -0.15436,-0.2864 -0.15435,-0.28639 0,3e-5 -0.0285,-0.13351 -0.0548,-0.25383 z m -90.957112,-0.50078 c -0.0053,0.0717 -0.01029,0.14412 -0.01029,0.14405 0,-10e-6 -0.01871,0.0776 -0.02572,0.1064 0.01696,-0.11622 0.02811,-0.19349 0.03599,-0.25039 z m 90.861082,-0.024 c 0.008,0.0599 0.0135,0.11205 0.0274,0.21608 -0.005,-0.024 -0.0205,-0.0961 -0.0205,-0.0961 0,4e-5 -0.003,-0.0643 -0.007,-0.12003 z m 6.9595,0.0737 c 0,0.0556 -0.041,0.11794 -0.0462,0.17493 0.0298,-0.18086 0.0453,-0.36379 0.0462,-0.54708 z m -0.024,-0.65509 c 0.002,0.0225 0.01,0.0824 0.01,0.0824 0,-9e-5 0.005,0.15433 0.005,0.16978 2.1e-4,0.0208 -0.008,-0.13397 -0.0156,-0.25211 z m -104.727077,-0.0274 c -0.0089,0.11633 -0.01933,0.25183 -0.01887,0.23322 8.79e-4,-0.0149 0.0089,-0.16815 0.0089,-0.16808 0,0 0.0089,-0.0503 0.01029,-0.0651 z m 104.631077,-0.49563 c 0.006,0.0176 0.0394,0.1012 0.0394,0.1012 0,-3e-5 0.0134,0.10391 0.0259,0.19894 -0.0168,-0.0768 -0.0338,-0.15696 -0.0651,-0.30012 z m -104.52971,-0.0377 c -0.03171,0.13581 -0.04707,0.2039 -0.06516,0.28126 0.01229,-0.0833 0.02572,-0.18012 0.02572,-0.18009 0,1e-5 0.03241,-0.0834 0.03943,-0.1012 z m 104.03749,-1.03245 c 0.0178,0.0166 0.12003,0.10984 0.12003,0.10984 -1e-5,-2e-5 0.0826,0.21332 0.15604,0.40304 -0.10835,-0.20155 -0.16817,-0.31215 -0.27609,-0.5128 z M 68.439878,269.3249 c -0.113128,0.20426 -0.175785,0.31746 -0.282982,0.51105 0.07332,-0.1849 0.156081,-0.39274 0.156071,-0.39273 -8e-6,2e-5 0.106368,-0.0992 0.126915,-0.11843 z m 4.956369,-0.87981 c 0.106542,0.0803 0.177513,0.14144 0.224665,0.1835 0.05462,0.0485 0.06332,0.0586 0.08918,0.0841 -0.03337,-0.0393 -0.09878,-0.10618 -0.313844,-0.26754 z m 93.625683,-0.0137 c -0.24559,0.1817 -0.29584,0.24061 -0.33099,0.28127 0.0251,-0.0249 0.0347,-0.0352 0.0892,-0.0842 0.0507,-0.0453 0.11635,-0.10401 0.24181,-0.19723 z m 0.34129,-0.21613 c -0.0833,0.0489 -0.13728,0.082 -0.21952,0.13379 0.0576,-0.0385 0.13043,-0.0875 0.1303,-0.0875 -3e-5,9e-5 0.0622,-0.0324 0.0892,-0.0462 z m -94.349423,-0.0137 c 0.03188,0.0161 0.0995,0.0496 0.09947,0.0496 -7.9e-5,-5e-5 0.07922,0.0547 0.144067,0.0978 -0.09132,-0.0575 -0.159503,-0.0982 -0.243537,-0.14748 z m -3.13162,-0.11466 c -0.08333,0.0613 -0.26079,0.19166 -0.517937,0.38072 0.149618,-0.13875 0.382467,-0.35502 0.382449,-0.35501 0,0 0.117033,-0.0221 0.135488,-0.0258 z m 100.628063,-0.009 c 0.0137,0.002 0.11658,0.0206 0.11658,0.0206 -1e-5,-10e-6 0.22934,0.2106 0.36529,0.33614 -0.23326,-0.17392 -0.41578,-0.30737 -0.48192,-0.35672 z m -2.70629,-0.0753 c -0.0633,0.0263 -0.0743,0.0298 -0.13031,0.0532 0.0232,-0.0111 0.0825,-0.0412 0.0823,-0.0412 0,0 0.0438,-0.01 0.048,-0.0111 z m -95.236083,-0.0111 c 0.0053,8.8e-4 0.05147,0.0111 0.05147,0.0111 -1.7e-5,-9e-5 0.06955,0.0353 0.104613,0.0532 -0.06744,-0.0277 -0.08306,-0.035 -0.156062,-0.0651 z m 96.203353,-0.22999 c 0,0 0.0377,0.007 0.0394,0.007 -0.0547,0.01 -0.13821,0.0256 -0.26756,0.0497 0.0795,-0.0196 0.22813,-0.0563 0.22811,-0.0563 z m -97.184331,-0.003 c -8e-6,0 0.139371,0.0324 0.204085,0.048 -0.104884,-0.0194 -0.196972,-0.0359 -0.233236,-0.0429 8.78e-4,0 0.02915,-0.005 0.02915,-0.005 z M 172.53912,254.99254 c 0.005,0.0755 0.0515,0.12488 0.0515,0.20579 v 0.37559 c -8.5e-4,-0.19487 -0.0181,-0.38937 -0.0515,-0.58138 z m -104.670318,-0.0293 c -0.03679,0.20148 -0.05573,0.40579 -0.05665,0.61056 v 15.6512 c 7.33e-4,0.18153 0.01564,0.36274 0.0446,0.54195 -0.0053,-0.0553 -0.04627,-0.11586 -0.04627,-0.1698 v -16.39889 c 0,-0.0923 0.05128,-0.14946 0.05829,-0.23498 z m 104.164408,-1.27937 c 0.18906,0.25083 0.31095,0.55321 0.38759,0.82835 -0.0922,-0.29195 -0.22257,-0.57046 -0.38759,-0.82835 z m -103.649904,-0.0155 c -0.168472,0.25681 -0.30226,0.53477 -0.397884,0.82662 0.07876,-0.27412 0.206234,-0.57565 0.397884,-0.82662 z m 1.98426,-1.73558 c -0.452643,0.28064 -0.808417,0.54226 -1.070165,0.75974 0.683646,-0.65704 1.070071,-1.56428 1.070165,-2.51249 z m 99.667634,-1.75158 c 9e-4,0.98745 0.4214,1.92798 1.15594,2.58794 -0.0338,-0.0294 -0.0493,-0.0438 -0.0874,-0.0754 -0.26175,-0.21751 -0.61583,-0.47914 -1.06846,-0.75975 v -1.75275 z M 66.332076,244.63079 c 1.119392,0.0627 2.226303,0.14408 3.385427,0.14408 0.220329,0 0.4258,-0.003 0.646551,-0.006 h 0.0036 v 3.43002 c -3.05e-4,-1.86647 -1.470949,-3.40138 -3.335691,-3.48147 -0.246751,-0.01 -0.454968,-0.0722 -0.699716,-0.0857 z m -8.50293,-1.16983 c 0.356405,0.0815 0.696135,0.18008 1.059881,0.25382 -0.366037,-0.0743 -0.701292,-0.1718 -1.059881,-0.25382 z m 2.793754,-8.95061 c 0.985402,0.19622 2.115777,0.29372 3.196769,0.42873 -1.09641,-0.14085 -2.199722,-0.22156 -3.196769,-0.42873 z m 9.744788,0.94479 h -0.0053 c -0.220443,0.003 -0.423411,0.006 -0.644838,0.006 -0.791803,0 -1.43535,-0.15907 -2.200355,-0.1955 1.650474,-0.30579 2.848519,-1.74461 2.850338,-3.42315 z m -18.252946,-4.2153 c 0.514127,0.38343 1.43982,1.01059 2.726863,1.57608 -1.258205,-0.55282 -2.062056,-1.06359 -2.726863,-1.57608 z m -1.406295,-2.79549 c 0.0018,1.05238 0.478861,2.04764 1.298265,2.70799 -0.249253,-0.19954 -0.546132,-0.39719 -0.742604,-0.60195 -0.366687,-0.38218 -0.385532,-0.40691 -0.504214,-0.64315 -0.03697,-0.0736 -0.04268,-0.0936 -0.04969,-0.13547 0.0027,0.0158 -8.79e-4,-0.0648 -0.0018,-0.0327 3.97e-4,-0.0302 3.97e-4,-0.0606 0,-0.0909 v -1.20393 z m 12.68933,-0.59682 c -2.420728,-0.40203 -4.564702,-0.89947 -5.719548,-1.40287 v -62.21531 c 1.153837,-0.50294 3.298039,-0.99948 5.719548,-1.40118 z M 51.941524,159.57631 c -0.78075,0.66109 -1.231624,1.63182 -1.233095,2.65484 v -1.20223 c 3.54e-4,-0.0286 3.54e-4,-0.0571 0,-0.0857 8.79e-4,0.0232 0.0053,-0.0588 0.0018,-0.0377 v -0.001 c 0.007,-0.0421 0.01297,-0.0607 0.04969,-0.13378 v -10e-4 c 0.118632,-0.23611 0.137586,-0.261 0.504213,-0.64313 0.17897,-0.18652 0.45504,-0.3665 0.677434,-0.5488 z m 2.900081,-1.71857 c -1.283416,0.56387 -2.204542,1.18848 -2.721717,1.57438 0.664315,-0.51162 1.467024,-1.02311 2.721717,-1.57438 z m 8.960914,-2.11975 c -1.071866,0.13411 -2.193269,0.231 -3.171049,0.42531 0.989213,-0.20509 2.084078,-0.28541 3.171049,-0.42531 z m 5.91502,-0.52501 c 0.22046,0 0.426334,0.003 0.648269,0.007 h 0.0018 v 0.001 3.61011 c -0.0026,-1.68125 -1.205036,-3.12102 -2.858917,-3.42315 0.767849,-0.0367 1.414066,-0.19553 2.208935,-0.19553 z m -12.227957,-7.918 c -0.477056,0.11316 -0.965577,0.21435 -1.428609,0.3413 0.46492,-0.12693 0.949331,-0.22822 1.428609,-0.3413 z m 115.236478,-4.3098 c -0.32669,0.22707 -0.59544,0.52038 -0.94324,0.72031 -1.08135,0.62195 -1.74784,1.7744 -1.74762,3.02185 v -2.1592 c 0.98787,-0.39627 1.84017,-0.9917 2.69086,-1.58296 z m -107.63387,-2.2364 c 1.307235,1.84507 3.096814,3.35399 5.275358,4.24635 v 0.001 0.90896 c -0.219811,-0.002 -0.421523,-0.006 -0.649983,-0.006 -2.745338,0 -5.342833,0.23036 -7.844451,0.57796 0.293878,-0.0406 0.551253,-0.12176 0.848932,-0.15777 2.630008,-0.32001 3.955363,-3.34146 2.409586,-5.49317 -0.01696,-0.0237 -0.02257,-0.0534 -0.03943,-0.0773 z m 110.51167,-0.44929 c -0.46365,0.57345 -0.93398,1.12461 -1.4852,1.62067 0.54746,-0.49425 1.02455,-1.04965 1.4852,-1.62067 z M 63.418357,137.45087 c 0.04794,0.149 0.147088,0.27343 0.200652,0.42017 -0.05435,-0.14631 -0.151918,-0.27172 -0.200652,-0.42017 z m 114.253793,-0.66544 c -0.31251,0.76939 -0.63017,1.52531 -1.07189,2.22436 0.43867,-0.69728 0.76127,-1.45741 1.07189,-2.22436 z m 1.12331,-5.13472 c -0.003,1.33396 -0.22337,2.62606 -0.58822,3.86562 0.36317,-1.23937 0.58409,-2.5333 0.58822,-3.86562 z M 82.578436,119.5856 c -0.241432,1.16895 -0.369526,2.37848 -0.37216,3.61694 -4.88e-4,0.0338 -4.88e-4,0.0675 0,0.1012 0.0062,0.23332 0.01677,0.47867 0.03433,0.73403 -2.093351,-1.57348 -4.638819,-2.42693 -7.256203,-2.43703 h -0.01545 c -6.614368,0.003 -12.035805,5.38586 -12.133679,11.97933 0.09735,-6.61104 5.505428,-11.98108 12.138815,-11.98104 0.0036,8e-5 0.007,0.001 0.01029,0.001 1.049645,0.003 2.138645,0.18168 3.261952,0.50078 1.895565,0.53643 3.858639,-0.60366 4.332104,-2.51593 z m 82.256854,-1.92935 c 7.61938,-1.8e-4 13.82131,6.15419 13.94131,13.74577 -0.1204,-7.5793 -6.33175,-13.74257 -13.93786,-13.74405 h -0.007 c -1.49289,0.002 -2.96357,0.2552 -4.36297,0.71858 0.0431,-0.01 0.0859,-0.0221 0.1286,-0.0342 1.38631,-0.4446 2.81129,-0.68381 4.2378,-0.68601 z m -81.263865,-1.25024 c -0.411665,1.00137 -0.750402,2.04004 -0.977553,3.12131 0.0047,-0.016 0.0092,-0.032 0.01369,-0.048 0.2273,-1.06252 0.557512,-2.08713 0.963837,-3.07329 z m 72.476155,-0.98785 c 0.0111,0.0695 0.0411,0.13271 0.0533,0.20238 0.34784,1.98842 2.30694,3.26639 4.26694,2.78345 -1.4095,0.47865 -2.74451,1.17789 -3.94622,2.08889 0.0194,-0.33355 0.0297,-0.66452 0.0342,-0.99299 7.3e-4,-0.0171 8.8e-4,-0.0343 10e-4,-0.0515 -8.9e-4,-1.38024 -0.17012,-2.71817 -0.40988,-4.03025 z M 85.092617,113.5248 c -0.337034,0.52458 -0.614527,1.08681 -0.896946,1.64641 0.283096,-0.56032 0.559059,-1.1209 0.896946,-1.64641 z m 69.812813,-2.10603 c 0.20636,0.53559 0.34878,1.09574 0.51449,1.64985 -0.16537,-0.55337 -0.30852,-1.11517 -0.51449,-1.64985 z m -67.809684,-0.44934 c -0.389448,0.41799 -0.743519,0.86549 -1.09246,1.31885 0.349521,-0.45429 0.702311,-0.89984 1.09246,-1.31885 z m 2.45246,-2.1832 c -0.467552,0.3481 -0.9149,0.71901 -1.346277,1.1096 0.432078,-0.39192 0.877856,-0.76027 1.346277,-1.1096 z m 20.559514,-0.65685 c 0.0512,0.0333 0.11379,0.0433 0.16464,0.0773 0.0633,0.0414 0.12793,0.0809 0.1938,0.11842 -0.11291,-0.0772 -0.24394,-0.12101 -0.35844,-0.19553 z m 42.9678,-0.38244 c 0.29856,0.48645 0.55624,0.99263 0.81806,1.50234 -0.2615,-0.50823 -0.51996,-1.01742 -0.81806,-1.50234 z m -60.658103,-0.69973 c -0.564644,0.2755 -1.119829,0.56617 -1.649841,0.89693 0.530924,-0.33222 1.084075,-0.62022 1.649841,-0.89693 z m 22.862763,-0.0293 c -0.76668,1.15116 -1.46902,2.35431 -2.022,3.65809 -0.84927,-0.87765 -1.779,-1.65921 -2.77145,-2.33925 1.60175,0.90553 3.6315,0.40992 4.63567,-1.13192 0.045,-0.0691 0.11203,-0.11842 0.15778,-0.18692 z M 104.97127,105.874 c 0.36561,0.0997 0.71536,0.21043 1.07359,0.33271 -0.35503,-0.1204 -0.7112,-0.23453 -1.07359,-0.33271 z m -9.242178,-0.0515 c -0.697515,0.18278 -1.390614,0.37635 -2.052863,0.63799 0.662996,-0.2628 1.354364,-0.45441 2.052863,-0.63799 z m 4.544768,-0.65169 c -1.168607,0 -2.305279,0.13137 -3.412857,0.3447 1.10737,-0.214 2.244013,-0.3447 3.412857,-0.3447 z m 50.3286,-0.71516 c 0.40466,0.44985 0.7846,0.91293 1.15249,1.39429 -0.36761,-0.47956 -0.74829,-0.94619 -1.15249,-1.39429 z m -16.64442,-0.52818 c 8.66789,0.003 15.51455,6.84687 15.52769,15.51223 -0.003,0.21844 -0.009,0.43516 -0.0223,0.64828 -0.32968,5.68706 6.62797,9.40034 11.16811,5.95964 v -10e-4 c 1.21225,-0.91898 2.68662,-1.41481 4.20863,-1.41833 3.97111,0.002 6.98628,3.01768 6.98866,6.98866 v 0.003 c -0.003,2.88271 -1.71286,5.40759 -4.38872,6.48104 -2.63261,1.05647 -4.37492,3.63058 -4.37496,6.46727 v 107.3613 c 1.5e-4,2.08339 0.97681,4.00694 2.55534,5.31995 v 12.08221 c -0.0893,0.0486 -0.0366,0.03 -0.13203,0.0754 -1.71509,0.81731 -5.19793,1.92162 -9.58175,2.80233 -8.79055,1.766 -21.57266,2.93949 -35.70646,2.93949 -14.1338,0 -26.914197,-1.17349 -35.704727,-2.93949 -4.383823,-0.88071 -7.866673,-1.98502 -9.581747,-2.80233 -0.09553,-0.0455 -0.04268,-0.0268 -0.132052,-0.0754 v -12.08394 c 1.577759,-1.31297 2.555188,-3.2354 2.555355,-5.31822 v -7.16188 c -2.8e-4,-1.79137 -0.746291,-3.40165 -1.883075,-4.64425 1.144037,-1.24527 1.882795,-2.87201 1.883075,-4.66825 V 155.2203 c -2.46e-4,-1.7964 -0.738758,-3.42282 -1.883075,-4.66826 1.136634,-1.24275 1.882997,-2.85466 1.883075,-4.64596 v -0.91066 c -1.67e-4,-2.81869 -1.720393,-5.37987 -4.32868,-6.44841 -1.972871,-0.80811 -3.216383,-2.65812 -3.220776,-4.79003 v -0.001 -0.001 c 0.0018,-2.98005 2.202955,-5.18021 5.182749,-5.18277 h 0.0018 c 1.113842,0.008 2.190432,0.37053 3.080151,1.03929 h 0.0018 c 4.568688,3.43212 11.532006,-0.34802 11.140688,-6.04881 v -0.001 c -0.0079,-0.11131 -0.01274,-0.23537 -0.01713,-0.36189 0.02424,-6.21252 4.876718,-11.05659 11.096089,-11.05662 3.01057,5.4e-4 5.88113,1.21833 7.97479,3.38198 h 0.002 c 3.38402,3.49557 9.52316,2.3538 11.42368,-2.1249 2.44078,-5.75496 8.02845,-9.4604 14.27914,-9.47027 h 0.001 0.004 z m -15.20155,-1.01363 c -0.0478,0.044 -0.088,0.0962 -0.13548,0.14062 0.0477,-0.0448 0.0875,-0.0963 0.13548,-0.14062 z m 28.78468,-1.27253 c 0.52458,0.40249 1.03614,0.81096 1.52294,1.2571 -0.48646,-0.44412 -0.9989,-0.85647 -1.52294,-1.2571 z m -24.02381,-2.049342 c -0.22853,0.1204 -0.44987,0.252643 -0.674,0.38071 0.22555,-0.129356 0.44399,-0.259204 0.674,-0.38071 z m 20.41544,-0.197222 c 0.6626,0.332341 1.31978,0.662404 1.94311,1.056434 -0.62264,-0.39181 -1.28154,-0.725899 -1.94311,-1.056434 z m -4.20176,-1.591526 c 0.85466,0.22957 1.70633,0.45704 2.51764,0.782034 -0.81083,-0.323336 -1.66386,-0.553594 -2.51764,-0.782034 z m -10.88515,-0.190392 c -0.26419,0.06217 -0.53305,0.108606 -0.79405,0.180084 0.26271,-0.07224 0.52811,-0.117328 0.79405,-0.180084 z m 5.6906,-0.6019 c 1.2657,0.03317 2.50959,0.145376 3.7147,0.380721 -1.16856,-0.227211 -2.3782,-0.325313 -3.60323,-0.36357 l -0.009,-0.0012 c -0.0343,-0.0049 -0.0685,-0.0099 -0.10288,-0.01535 z m -0.57451,-7.02301 h -0.0107 -0.009 c -0.0693,0.0025 -0.1385,0.0062 -0.20751,0.01376 -8.85576,0.07309 -17.03959,4.130869 -22.49747,10.766822 -3.38195,-1.65425 -7.11686,-2.56677 -10.96233,-2.567384 h -0.002 c -10.83162,8.5e-5 -20.057732,6.990434 -23.522906,16.688724 -0.597079,-0.0654 -1.134246,-0.25875 -1.754447,-0.26069 h -0.0053 c -0.007,-10e-6 -0.01529,-10e-6 -0.0223,0 -10.498615,0.002 -19.120676,8.62825 -19.120614,19.12747 v 0.001 0.003 c 0.0018,2.28377 1.87477,6.25158 2.638247,8.3095 -3.079071,0.65016 -7.475392,-0.31089 -10.180855,0.87782 -3.085615,1.35571 -6.16528,3.18264 -8.768834,5.89618 -2.755138,2.87148 -5.091868,7.04929 -5.091849,12.10452 v 68.77521 c -1.9e-5,5.05524 2.336711,9.23475 5.091849,12.10625 2.603939,2.71394 5.683862,4.53904 8.768834,5.89446 4.058713,1.78332 8.703329,2.7592 13.558852,3.35458 -0.603018,1.21023 -1.023865,2.57672 -1.023865,4.1143 v 16.39889 c 0,3.09504 1.533942,5.50824 3.135032,7.08814 1.498696,1.47883 3.207509,2.48214 4.940942,3.30823 3.511211,1.67333 7.772637,2.86986 12.831683,3.88622 10.139048,2.03693 23.566831,3.21221 38.452181,3.21221 14.88533,0 28.31313,-1.17528 38.45218,-3.21221 5.05906,-1.01636 9.32048,-2.21292 12.83169,-3.88622 1.73342,-0.82609 3.44223,-1.8294 4.94091,-3.30823 1.6011,-1.5799 3.13505,-3.9931 3.13505,-7.08814 v -16.39889 c 0,-2.58652 -1.19042,-4.57408 -2.55537,-6.17575 V 148.41097 c 5.33785,-3.87433 8.75816,-9.99586 8.7637,-16.78476 v -0.003 -0.003 c 4e-5,-11.49689 -9.4363,-20.93363 -20.93317,-20.93337 h -0.005 -0.005 c -0.94609,10e-4 -1.87543,0.10001 -2.79546,0.22981 -3.64636,-11.920399 -14.57889,-20.665604 -27.59087,-20.883638 -0.15771,-0.02592 -0.31699,-0.04066 -0.47676,-0.0446 z"
       id="path4622"
       inkscape:connector-curvature="0"
       sodipodi:nodetypes="ccccccscccccscccccccccccscccsccccccccccccccccccccccccccccsccccsccsccscccccccccccscccccsccccccccccccccccccccccccccccccccccccccccccccccccccccccccccccsccccccsscccccccccccccccccccsccccccccccccccsccccccccsscccccccccccccccccccccccccccccccccccccccccccccccsccccccccccccccccccccccccccccccccccccccccccccccccccccccccccccccccccccccccccccccccccccccccccccscccccccccccsssccccccccccccccccccccccccccccccccccccccccccccccccccccccccccccsccccscccsssssscsssssssssssccccsccccccc" />
    <path
       style="color:#000000;font-style:normal;font-variant:normal;font-weight:normal;font-stretch:normal;font-size:medium;line-height:normal;font-family:sans-serif;text-indent:0;text-align:start;text-decoration:none;text-decoration-line:none;text-decoration-style:solid;text-decoration-color:#000000;letter-spacing:normal;word-spacing:normal;text-transform:none;writing-mode:lr-tb;direction:ltr;baseline-shift:baseline;text-anchor:start;white-space:normal;clip-rule:nonzero;display:inline;overflow:visible;visibility:visible;opacity:1;isolation:auto;mix-blend-mode:normal;color-interpolation:sRGB;color-interpolation-filters:linearRGB;solid-color:#000000;solid-opacity:1;fill:#e6e6e6;fill-opacity:1;fill-rule:nonzero;stroke:none;stroke-width:7.93750048;stroke-linecap:butt;stroke-linejoin:round;stroke-miterlimit:4;stroke-dasharray:none;stroke-dashoffset:0;stroke-opacity:1;color-rendering:auto;image-rendering:auto;shape-rendering:auto;text-rendering:auto;enable-background:accumulate"
       d="m 66.357299,232.35666 c -4.463483,-0.29831 -8.399795,-1.20436 -10.768124,-2.24493 -1.018844,-0.44763 -1.674599,-0.89746 -2.074545,-1.19595 v -67.01676 c 0.400276,-0.29911 1.056351,-0.74905 2.074545,-1.1964 2.367608,-1.04024 6.304081,-1.94513 10.768124,-2.24308 z m 2.87,-81.08731 c -6.516597,0 -12.306849,1.14359 -16.475526,2.97518 -2.101356,0.92326 -3.600934,1.88624 -4.747509,3.08126 -0.456087,0.47537 -0.805383,0.8891 -1.117406,1.51009 -0.156019,0.31048 -0.30253,0.68917 -0.377983,1.14679 -0.03778,0.22883 -0.05404,0.48088 -0.0487,0.69902 v 69.45274 c -0.0054,0.21815 0.01093,0.47017 0.0487,0.69902 0.07545,0.45766 0.221954,0.83627 0.377983,1.14681 0.31204,0.62105 0.661273,1.0347 1.117406,1.51008 1.148351,1.19687 2.647575,2.15726 4.747509,3.07989 4.167734,1.83119 9.958226,2.97701 16.475526,2.97701 0.270482,0 0.503308,-0.005 0.700396,-0.008 1.930888,-0.0238 3.483748,-1.59571 3.484046,-3.52675 v -81.20877 c -2.7e-4,-1.92944 -1.550644,-3.5007 -3.479913,-3.52676 -0.202778,-0.002 -0.436883,-0.008 -0.704529,-0.008 z M 134.24498,99.360248 c 10.66824,0.0025 19.24068,8.572342 19.2477,19.239412 -0.003,0.28341 -0.0139,0.56674 -0.0302,0.84967 -0.1742,3.00506 3.25325,4.83365 5.65228,3.01559 1.83882,-1.39397 4.08061,-2.14935 6.38803,-2.15354 5.89785,9.1e-4 10.60337,4.70618 10.60417,10.60417 v 0.001 c -0.003,4.33939 -2.62958,8.21646 -6.65717,9.83214 -1.33728,0.53667 -2.21373,1.83274 -2.21375,3.27369 v 108.66347 c 9e-5,1.22059 0.63118,2.35442 1.66853,2.99767 0.66282,0.41097 0.86194,0.65077 0.91809,0.68845 v 15.84127 c -0.0181,0.0184 0.003,-0.01 -0.024,0.018 -0.27631,0.27267 -1.00835,0.79868 -2.12046,1.32868 -2.22425,1.05999 -5.89848,2.1831 -10.52014,3.11158 -9.2433,1.85698 -22.33618,3.04408 -36.83419,3.04408 -14.49802,0 -27.590904,-1.1871 -36.834213,-3.04408 -4.621651,-0.92848 -8.295883,-2.05159 -10.520118,-3.11158 -1.112118,-0.53 -1.844152,-1.05601 -2.120463,-1.32868 -0.02835,-0.0281 -0.0063,5.5e-4 -0.02391,-0.018 v -15.84127 c 0.05617,-0.0377 0.255256,-0.27748 0.918084,-0.68845 1.03735,-0.64325 1.668441,-1.77708 1.66854,-2.99767 v -7.24827 c -3.12e-4,-1.96457 -1.605508,-3.55034 -3.569937,-3.52676 -0.23598,0.002 -0.439174,0.007 -0.614506,0.007 -6.788638,0 -12.85705,-1.1695 -17.415191,-3.17223 -2.290989,-1.00657 -4.109929,-2.15956 -5.497052,-3.60529 -1.30767,-1.36291 -2.206807,-3.15103 -2.206807,-4.92708 v -69.6095 c 0,-1.77607 0.899137,-3.56418 2.206807,-4.92707 1.387325,-1.44596 3.206382,-2.59934 5.497052,-3.60577 4.558791,-2.00299 10.627159,-3.17403 17.415191,-3.17403 0.171545,0 0.376437,0.003 0.620026,0.006 1.96246,0.0206 3.564326,-1.56466 3.564417,-3.52723 v -0.92131 c -8.5e-5,-1.43166 -0.865466,-2.72129 -2.190277,-3.26405 -3.303001,-1.35291 -5.445755,-4.543 -5.450199,-8.11213 v -10e-4 c 7.2e-4,-4.88691 3.885752,-8.7726 8.772127,-8.77535 1.891097,0.007 3.728079,0.62407 5.239849,1.76038 2.415184,1.81435 5.844912,-0.0483 5.638045,-3.06196 -0.01368,-0.19843 -0.02222,-0.3969 -0.02756,-0.59569 0.01742,-8.1799 6.57683,-14.73068 14.761055,-14.73073 4.00011,7.2e-4 7.82484,1.62257 10.60647,4.49719 1.75663,1.81456 4.79524,1.24927 5.78179,-1.07561 3.01779,-7.11541 9.97162,-11.725696 17.70041,-11.735366 h 10e-4 z m -0.004,-7.054485 h -0.004 c -8.98142,0.0099 -17.22049,4.613194 -22.01023,11.975557 -3.55042,-2.36062 -7.74084,-3.66112 -12.07154,-3.6618 h -5.1e-4 c -10.448482,7e-5 -19.225479,7.43036 -21.330507,17.27055 -1.382529,-0.39278 -2.809735,-0.63837 -4.264812,-0.643 h -0.01093 c -8.701809,-5e-5 -15.831661,7.12981 -15.831617,15.83162 v 0.002 c 0.0027,3.38178 1.81993,8.34897 3.714928,10.98481 -4.668561,0.56525 -9.690412,-0.10898 -13.457037,1.546 -2.846253,1.25058 -5.530434,2.86658 -7.750243,5.18016 -2.299479,2.39662 -4.170675,5.78815 -4.170668,9.811 v 69.60984 c -7e-6,4.02282 1.871189,7.41438 4.170668,9.81097 2.220006,2.31379 4.90431,3.92928 7.750243,5.17969 4.986405,2.19089 10.915923,3.4261 17.382582,3.70589 v 2.00335 c -1.447751,1.24469 -2.586622,2.87763 -2.586622,5.07865 v 16.59859 c 0,1.91559 0.991444,3.54621 2.123221,4.66302 1.131778,1.11678 2.476658,1.9299 4.040688,2.67526 3.128066,1.49071 7.202464,2.66249 12.165237,3.6595 9.925562,1.99403 23.345649,3.18231 38.223979,3.18231 14.87832,0 28.29839,-1.18828 38.22395,-3.18231 4.96278,-0.99701 9.03718,-2.16879 12.16524,-3.6595 1.56403,-0.74536 2.90891,-1.55848 4.04069,-2.67526 1.13179,-1.11681 2.12323,-2.74743 2.12323,-4.66302 v -16.59859 c 0,-2.20102 -1.13888,-3.83396 -2.58665,-5.07865 V 146.20653 c 5.4176,-3.11406 8.86617,-8.92019 8.87133,-15.28739 v -0.002 c -9e-5,-9.71199 -7.94891,-17.66068 -17.6609,-17.66046 h -0.005 c -1.83346,0.002 -3.63753,0.3093 -5.36112,0.86208 -2.14736,-12.35552 -12.94086,-21.81268 -25.89336,-21.812754 z"
       id="path4601"
       inkscape:connector-curvature="0"
       sodipodi:nodetypes="csccscccsscccccccssccccccccccccccccccccssssscccccccssssssssccccccccccccccccccccsccssccssssssccssssssssssscccsccccc" />
    <path
       style="opacity:1;fill:#ffd42a;fill-opacity:1;stroke:none;stroke-width:4.49791622;stroke-linejoin:round;stroke-miterlimit:4;stroke-dasharray:none;stroke-opacity:1"
       d="m 69.226988,154.79665 c 0.22057,0 0.438348,0.003 0.657221,0.007 v 81.20876 c -0.218873,0.002 -0.436651,0.007 -0.657221,0.007 -6.079068,0 -11.538145,-1.13277 -15.056825,-2.67878 -1.759339,-0.773 -3.007677,-1.65346 -3.620913,-2.2926 -0.613254,-0.63914 -0.562151,-0.8208 -0.562151,-0.83539 v -69.60971 c 0,-0.0145 -0.0511,-0.19626 0.562151,-0.83539 0.613236,-0.63914 1.861574,-1.52144 3.620913,-2.29444 3.51868,-1.54601 9.332475,-3.03163 15.411544,-3.03163 z m 45.200342,-25.30607 c -25.143124,0.58346 -44.543121,4.85013 -44.543121,10.06287 v 5.82286 c -0.219104,-0.002 -0.436829,-0.006 -0.657221,-0.006 -7.185674,0 -13.696977,1.21527 -18.833892,3.47227 -2.568456,1.1285 -4.820073,2.51306 -6.623639,4.3928 -1.803573,1.87976 -3.188751,4.46946 -3.188743,7.36892 v 69.60973 c -8e-6,2.89945 1.38517,5.48961 3.188743,7.36936 1.803566,1.87976 4.055183,3.26384 6.623639,4.39235 5.136915,2.25702 11.648218,3.47043 18.833892,3.47043 0.220392,0 0.438117,-0.003 0.657221,-0.007 v 7.24832 c -1.677131,1.03984 -2.586624,2.15024 -2.586624,3.30518 v 16.5987 c 0,5.90173 23.649551,10.65292 53.025895,10.65292 29.37634,0 53.02591,-4.75119 53.02591,-10.65292 v -16.5987 c 0,-1.15494 -0.9095,-2.26534 -2.58666,-3.30518 V 139.55515 c 0,-3.14462 -7.06145,-5.94526 -18.18217,-7.8011 -4.28409,5.85708 -11.09329,9.32201 -18.33971,9.33243 -8.20623,-0.006 -15.77498,-4.435 -19.81352,-11.5942 z"
       id="path4529"
       inkscape:connector-curvature="0"
       sodipodi:nodetypes="cccsscsssscccscssssssssccssssscscccc" />
    <path
       style="color:#000000;font-style:normal;font-variant:normal;font-weight:normal;font-stretch:normal;font-size:medium;line-height:normal;font-family:sans-serif;text-indent:0;text-align:start;text-decoration:none;text-decoration-line:none;text-decoration-style:solid;text-decoration-color:#000000;letter-spacing:normal;word-spacing:normal;text-transform:none;writing-mode:lr-tb;direction:ltr;baseline-shift:baseline;text-anchor:start;white-space:normal;clip-rule:nonzero;display:inline;overflow:visible;visibility:visible;opacity:1;isolation:auto;mix-blend-mode:normal;color-interpolation:sRGB;color-interpolation-filters:linearRGB;solid-color:#000000;solid-opacity:1;fill:#333333;fill-opacity:0.92896178;fill-rule:nonzero;stroke:none;stroke-width:4.49791622;stroke-linecap:butt;stroke-linejoin:round;stroke-miterlimit:4;stroke-dasharray:none;stroke-dashoffset:0;stroke-opacity:1;color-rendering:auto;image-rendering:auto;shape-rendering:auto;text-rendering:auto;enable-background:accumulate"
       d="m 151.12788,145.50757 c -4.18902,0 -7.9717,0.55703 -10.88111,1.5505 -1.45472,0.49672 -2.69795,1.0913 -3.70541,1.90736 -0.29315,0.23743 -0.56432,0.51591 -0.81569,0.81474 -0.25135,-0.29883 -0.52253,-0.57731 -0.81566,-0.81474 -1.00748,-0.81606 -2.2507,-1.41064 -3.70541,-1.90736 -2.90943,-0.99347 -6.69211,-1.5505 -10.88112,-1.5505 -4.18902,0 -7.97169,0.55703 -10.88111,1.5505 -1.45471,0.49672 -2.69795,1.0913 -3.70541,1.90736 -0.29314,0.23743 -0.56432,0.51591 -0.81568,0.81474 -0.25136,-0.29883 -0.52254,-0.57731 -0.81566,-0.81474 -1.00748,-0.81606 -2.25072,-1.41064 -3.70543,-1.90736 -2.909428,-0.99347 -6.692095,-1.5505 -10.881113,-1.5505 -4.189011,0 -7.971684,0.55703 -10.881112,1.5505 -1.454711,0.49672 -2.697948,1.0913 -3.705414,1.90736 -1.007477,0.81604 -1.873838,2.00966 -1.873838,3.47899 v 105.81664 c 0,1.46933 0.866361,2.66295 1.873838,3.479 1.007466,0.81607 2.250703,1.41065 3.705414,1.90736 2.909428,0.9935 6.692101,1.5505 10.881112,1.5505 4.189018,0 7.971685,-0.557 10.881113,-1.5505 1.45471,-0.49671 2.69795,-1.09129 3.70543,-1.90736 0.29312,-0.23743 0.5643,-0.51592 0.81566,-0.81476 0.25136,0.29884 0.52254,0.57733 0.81568,0.81476 1.00746,0.81607 2.2507,1.41065 3.70541,1.90736 2.90942,0.9935 6.69209,1.5505 10.88111,1.5505 4.18901,0 7.97169,-0.557 10.88112,-1.5505 1.45471,-0.49671 2.69793,-1.09129 3.70541,-1.90736 0.29313,-0.23743 0.56431,-0.51592 0.81566,-0.81476 0.25137,0.29884 0.52254,0.57733 0.81569,0.81476 1.00746,0.81607 2.25069,1.41065 3.70541,1.90736 2.90941,0.9935 6.69209,1.5505 10.88111,1.5505 4.18902,0 7.97169,-0.557 10.8811,-1.5505 1.45471,-0.49671 2.69796,-1.09129 3.70542,-1.90736 1.0075,-0.81605 1.87385,-2.00967 1.87385,-3.479 V 152.44442 c 0,-1.46933 -0.86635,-2.66295 -1.87385,-3.47899 -1.00746,-0.81606 -2.25071,-1.41064 -3.70542,-1.90736 -2.90941,-0.99347 -6.69208,-1.5505 -10.8811,-1.5505 z"
       id="path4523"
       inkscape:connector-curvature="0" />
    <path
       style="opacity:1;fill:#ffa700;fill-opacity:1;stroke:none;stroke-width:2.69999981;stroke-linejoin:round;stroke-miterlimit:4;stroke-dasharray:none;stroke-opacity:0.83921569"
       d="m 90.698882,149.83415 c -7.712347,0 -13.921218,2.12011 -13.921218,4.75359 v 101.86255 c 0,2.63348 6.208871,4.7536 13.921218,4.7536 7.712347,0 13.921218,-2.12012 13.921218,-4.7536 V 154.58774 c 0,-2.63348 -6.208871,-4.75359 -13.921218,-4.75359 z m 29.653328,0 c -7.71236,0 -13.92122,2.12011 -13.92122,4.75359 v 101.86255 c 0,2.63348 6.20886,4.7536 13.92122,4.7536 7.71234,0 13.9212,-2.12012 13.9212,-4.7536 V 154.58774 c 0,-2.63348 -6.20886,-4.75359 -13.9212,-4.75359 z m 29.65331,0 c -7.71236,0 -13.92122,2.12011 -13.92122,4.75359 v 101.86255 c 0,2.63348 6.20886,4.7536 13.92122,4.7536 7.71235,0 13.92122,-2.12012 13.92122,-4.7536 V 154.58774 c 0,-2.63348 -6.20887,-4.75359 -13.92122,-4.75359 z"
       id="rect4504"
       inkscape:connector-curvature="0" />
    <path
       style="opacity:0.403;fill:#ffff00;fill-opacity:0.92896178;stroke:none;stroke-width:3.96875024;stroke-linecap:butt;stroke-linejoin:round;stroke-miterlimit:4;stroke-dasharray:none;stroke-opacity:1"
       d="m 112.39057,152.16038 c -1.85293,0.51861 -4.54869,1.83701 -4.54919,3.01094 l -0.0427,100.20257 c -1.3e-4,0.30073 0.0467,0.70163 0.14848,0.94097 0.1018,0.23938 0.25873,0.31722 0.48221,0.52441 0.22365,0.20717 0.51323,0.40558 0.87869,0.60976 0.39135,0.22461 0.80408,0.46002 1.31136,0.68806 0.683,0.28621 1.31335,0.53429 1.98666,0.73746 1.44146,0.45014 3.2117,0.83898 3.25534,0.79373 0,0 -0.0107,-0.48504 -0.0102,-0.59599 l 0.78963,-107.78779 -1.06873,0.15909 -1.03263,0.20998 -1.08846,0.20998 -1.06054,0.29683 z"
       id="rect5056-1-4-6-7"
       inkscape:connector-curvature="0"
       sodipodi:nodetypes="csssscccccccccsc" />
    <path
       style="opacity:0.403;fill:#803300;fill-opacity:0.92896178;stroke:none;stroke-width:3.96875024;stroke-linecap:butt;stroke-linejoin:round;stroke-miterlimit:4;stroke-dasharray:none;stroke-opacity:1"
       d="m 98.636696,151.79981 c 1.852934,0.51862 4.548694,1.83703 4.549194,3.01096 l 0.0427,100.20257 c 1.2e-4,0.30072 -0.0457,0.56347 -0.14751,0.80282 -0.1018,0.23936 -0.25953,0.45536 -0.48319,0.66254 -0.22365,0.20718 -0.51322,0.40559 -0.87868,0.60977 -0.39136,0.22462 -0.80408,0.46003 -1.31136,0.68806 -0.683001,0.28621 -1.313353,0.53429 -1.986661,0.73746 -1.441461,0.45015 -3.211697,0.83897 -3.255336,0.79375 0,0 0.01073,-0.48505 0.01018,-0.59601 l -0.789636,-107.78779 1.06873,0.15909 1.032636,0.21 1.088452,0.20996 1.060542,0.29682 z"
       id="rect5056-1-4"
       inkscape:connector-curvature="0"
       sodipodi:nodetypes="ssssscccccccccs" />
    <path
       style="opacity:1;fill:#ffffff;fill-opacity:1;stroke:none;stroke-width:4.49791622;stroke-linejoin:round;stroke-miterlimit:4;stroke-dasharray:none;stroke-opacity:1"
       d="m 134.24085,95.832987 c -9.13413,0.0099 -17.37871,5.476113 -20.9452,13.885213 -3.44507,-3.56025 -8.18702,-5.57076 -13.14119,-5.57146 -10.101334,8e-5 -18.29005,8.18881 -18.290114,18.29012 0.0063,0.26893 0.01919,0.53767 0.03768,0.80602 -2.121008,-1.59424 -4.700548,-2.46016 -7.353889,-2.46859 -6.795551,-3e-5 -12.304432,5.50886 -12.304398,12.3044 0.0044,4.99066 3.125099,10.3894 7.640476,12.20758 l 1.046341,-5.41146 c 0.480227,-1.65946 0.800601,-2.47573 1.942813,-3.43906 1.317421,-1.11109 2.414518,-1.16628 4.273255,-0.3334 2.345506,1.05096 5.062092,7.63929 9.703848,7.34311 2.106219,-0.13438 2.873511,-2.15119 3.866403,-3.24516 0.930432,-1.02516 1.960793,-1.48356 2.775776,-1.66408 1.629964,-0.36104 3.118619,0.70197 3.913053,2.283 1.701138,3.3855 2.451536,14.37686 3.008606,15.72149 1.96595,4.74529 7.56082,4.71243 9.80932,1.49684 2.32257,-3.32149 1.75734,-15.5435 4.49855,-27.83492 4.03861,7.14307 11.31295,11.18324 19.51867,11.18938 7.2434,-0.01 14.05013,-3.46498 18.33468,-9.30534 11.11316,1.85171 18.1872,4.64084 18.1872,7.77731 v 4.15875 c 5.3551,-2.14821 8.86662,-7.33593 8.87135,-13.10585 -8e-5,-7.8057 -6.32798,-14.13339 -14.13368,-14.13321 -3.07563,0.003 -6.0658,1.01243 -8.51678,2.87046 0.0203,-0.34688 0.0324,-0.6942 0.0367,-1.04164 -9e-5,-12.58075 -10.19877,-22.77943 -22.77953,-22.779503 z"
       id="path4534"
       inkscape:connector-curvature="0"
       sodipodi:nodetypes="cccccccccsssssssscccscccccc" />
    <path
       style="opacity:1;fill:#cccccc;fill-opacity:1;stroke:none;stroke-width:4.49791622;stroke-linejoin:round;stroke-miterlimit:4;stroke-dasharray:none;stroke-opacity:1"
       d="m 134.72721,97.626441 c -0.97148,-0.01585 -1.9455,0.03047 -2.90858,0.140069 -10.56329,0.753495 -18.06194,10.43342 -18.5597,20.34721 2.51,-8.15827 9.40601,-15.04 18.44351,-15.68466 1.34533,-0.1531 2.7112,-0.18843 4.06365,-0.10835 9.38188,0.26514 16.86589,7.34732 19.50214,15.82198 -0.46687,-10.2417 -8.68045,-20.172176 -19.57057,-20.479945 -0.32272,-0.01917 -0.64661,-0.03096 -0.97045,-0.03636 z"
       id="circle4542"
       inkscape:connector-curvature="0" />
    <path
       style="opacity:1;fill:#cccccc;fill-opacity:1;stroke:none;stroke-width:4.49791622;stroke-linejoin:round;stroke-miterlimit:4;stroke-dasharray:none;stroke-opacity:1"
       d="m 165.17064,118.55463 c -4.0455,0.0824 -7.84553,2.32719 -10.03698,5.6509 2.33658,-1.84702 5.32278,-2.87612 8.37395,-2.61879 9.62745,0.1549 14.5355,12.63683 8.9067,19.64452 0.36018,-0.26347 0.71126,-0.55187 1.04989,-0.87033 8.5188,-6.4493 3.5653,-21.5972 -7.11876,-21.7691 -0.39301,-0.0332 -0.78508,-0.0451 -1.1748,-0.0373 z"
       id="circle4544"
       inkscape:connector-curvature="0" />
    <path
       style="opacity:1;fill:#cccccc;fill-opacity:1;stroke:none;stroke-width:4.49791622;stroke-linejoin:round;stroke-miterlimit:4;stroke-dasharray:none;stroke-opacity:1"
       d="m 99.868815,105.90071 c -9.589069,0.0259 -17.731232,9.33687 -16.026814,18.94503 0.266818,2.8671 1.427374,5.87854 3.037643,7.9556 0.15945,0.21607 1.664395,2.14108 1.664395,2.14108 -0.516123,-1.26689 -1.565797,-5.45681 -1.701608,-6.91621 -1.805954,-10.18055 7.334603,-20.0306 17.624179,-19.0672 3.04248,0.0613 5.77252,1.04949 8.06391,2.64818 -2.71128,-3.29266 -6.61028,-5.54853 -11.2375,-5.64173 -0.47759,-0.0447 -0.95262,-0.066 -1.424205,-0.0648 z"
       id="circle4546"
       inkscape:connector-curvature="0"
       sodipodi:nodetypes="scccccccs" />
    <path
       style="opacity:1;fill:#cccccc;fill-opacity:1;stroke:none;stroke-width:4.49791622;stroke-linejoin:round;stroke-miterlimit:4;stroke-dasharray:none;stroke-opacity:1"
       d="m 74.53112,122.31244 c -4.244914,0.0385 -8.547735,2.43339 -9.975902,6.60099 -0.528992,1.78144 -0.419934,1.61036 -0.553522,2.61874 -0.133589,1.00839 -0.07394,1.98534 -0.02435,2.55491 0.06274,0.71985 0.177171,1.00731 0.202235,1.15568 0.02701,0.15969 0.05385,0.28459 0.197533,0.76492 0.325238,1.08761 0.791607,1.79894 1.471944,2.5736 0.679771,0.774 1.598238,1.35435 2.684983,2.0853 l 0.164037,0.12372 c -2.428516,-2.86732 -2.873797,-6.7003 -1.202087,-10.64103 1.547115,-4.51471 6.77415,-7.32234 11.388602,-6.94394 0.08354,9e-4 0.165354,0.005 0.248007,0.009 -1.120019,-0.53837 -2.375997,-0.85258 -3.750884,-0.87105 -0.283981,-0.0234 -0.567581,-0.0336 -0.850577,-0.0309 z"
       id="circle4548"
       inkscape:connector-curvature="0"
       sodipodi:nodetypes="cccsssssccccccc" />
    <circle
       style="opacity:1;fill:#b3b3b3;fill-opacity:1;stroke:none;stroke-width:6.61458254;stroke-linecap:butt;stroke-linejoin:round;stroke-miterlimit:4;stroke-dasharray:none;stroke-opacity:1"
       id="path4976"
       cx="-128.42126"
       cy="109.71687"
       r="3.8243208"
       transform="scale(-1,1)" />
    <circle
       style="opacity:1;fill:#ffffff;fill-opacity:1;stroke:none;stroke-width:6.61458254;stroke-linecap:butt;stroke-linejoin:round;stroke-miterlimit:4;stroke-dasharray:none;stroke-opacity:1"
       id="circle5048"
       cx="-128.20874"
       cy="111.22759"
       r="1.981899"
       transform="scale(-1,1)" />
    <circle
       r="1.2470613"
       cy="111.87843"
       cx="-128.36075"
       id="circle4978"
       style="opacity:1;fill:#f2f2f2;fill-opacity:1;stroke:none;stroke-width:6.61458254;stroke-linecap:butt;stroke-linejoin:round;stroke-miterlimit:4;stroke-dasharray:none;stroke-opacity:1"
       transform="scale(-1,1)" />
    <circle
       r="2.0784352"
       cy="112.7098"
       cx="-122.60165"
       id="circle4980"
       style="opacity:1;fill:#b3b3b3;fill-opacity:1;stroke:none;stroke-width:6.61458254;stroke-linecap:butt;stroke-linejoin:round;stroke-miterlimit:4;stroke-dasharray:none;stroke-opacity:1"
       transform="scale(-1,1)" />
    <circle
       r="0.99990821"
       cy="113.63381"
       cx="-122.64507"
       id="circle5050"
       style="opacity:1;fill:#ffffff;fill-opacity:1;stroke:none;stroke-width:6.61458254;stroke-linecap:butt;stroke-linejoin:round;stroke-miterlimit:4;stroke-dasharray:none;stroke-opacity:1"
       transform="scale(-1,1)" />
    <circle
       style="opacity:1;fill:#f2f2f2;fill-opacity:1;stroke:none;stroke-width:6.61458254;stroke-linecap:butt;stroke-linejoin:round;stroke-miterlimit:4;stroke-dasharray:none;stroke-opacity:1"
       id="circle4982"
       cx="-122.70743"
       cy="113.90398"
       r="0.6465742"
       transform="scale(-1,1)" />
    <circle
       style="opacity:1;fill:#b3b3b3;fill-opacity:1;stroke:none;stroke-width:6.61458254;stroke-linecap:butt;stroke-linejoin:round;stroke-miterlimit:4;stroke-dasharray:none;stroke-opacity:1"
       id="circle4984"
       cx="-119.01564"
       cy="115.35522"
       r="1.549352"
       transform="scale(-1,1)" />
    <circle
       style="opacity:1;fill:#ffffff;fill-opacity:1;stroke:none;stroke-width:6.61458254;stroke-linecap:butt;stroke-linejoin:round;stroke-miterlimit:4;stroke-dasharray:none;stroke-opacity:1"
       id="circle5052"
       cx="-119.03998"
       cy="116.03812"
       r="0.73385143"
       transform="scale(-1,1)" />
    <circle
       r="0.46365479"
       cy="116.24594"
       cx="-119.10234"
       id="circle4986"
       style="opacity:1;fill:#f2f2f2;fill-opacity:1;stroke:none;stroke-width:6.61458302;stroke-linecap:butt;stroke-linejoin:round;stroke-miterlimit:4;stroke-dasharray:none;stroke-opacity:1"
       transform="scale(-1,1)" />
    <path
       sodipodi:nodetypes="csccccccccccsssc"
       inkscape:connector-curvature="0"
       id="path4995"
       d="m 108.47091,138.80623 c -0.0588,-0.18225 -0.12358,-0.96848 -0.12358,-0.96848 l 0.0155,-0.28924 0.0178,-0.27163 0.0178,-0.27164 0.0351,-0.30075 0.0827,-0.46693 0.0864,-0.42737 0.58917,-2.20015 0.46218,-1.54605 0.6169,-3.07127 c 0,0 -0.10726,1.29319 0.41339,2.86673 0.50106,1.51431 1.2866,3.05532 1.55274,5.09702 0.0333,0.2565 -0.0127,1.00303 -0.062,1.25739 -0.36541,1.88617 -2.75674,3.53095 -3.70417,0.5924 z"
       style="opacity:1;fill:#b3b3b3;fill-opacity:1;stroke:none;stroke-width:6.61458254;stroke-linecap:butt;stroke-linejoin:round;stroke-miterlimit:4;stroke-dasharray:none;stroke-opacity:1" />
    <path
       style="opacity:1;fill:#b3b3b3;fill-opacity:1;stroke:none;stroke-width:6.61458206;stroke-linecap:butt;stroke-linejoin:round;stroke-miterlimit:4;stroke-dasharray:none;stroke-opacity:1"
       d="m 101.05232,154.26555 c -0.0451,-0.12643 -0.10542,-0.64755 -0.10542,-0.64755 l 0.006,-0.18665 0.009,-0.17478 0.009,-0.17478 0.0198,-0.19161 0.0507,-0.29388 0.0542,-0.26757 0.38229,-1.35894 0.30303,-0.94874 0.3866,-1.92354 c 0,0 -0.0538,0.82961 0.34632,1.923 0.38501,1.0522 0.97384,2.1585 1.20025,3.52438 0.0284,0.17161 0.009,0.65255 -0.022,0.81206 -0.22779,1.18303 -1.90808,1.94746 -2.63741,-0.0912 z"
       id="path4997"
       inkscape:connector-curvature="0"
       sodipodi:nodetypes="csccccccccccsssc" />
    <circle
       cy="154.424"
       cx="-102.25376"
       id="circle4978-5-1-3"
       style="opacity:1;fill:#ececec;fill-opacity:1;stroke:none;stroke-width:6.61458254;stroke-linecap:butt;stroke-linejoin:round;stroke-miterlimit:4;stroke-dasharray:none;stroke-opacity:1"
       r="0.8141188"
       transform="scale(-1,1)" />
    <circle
       cy="154.56949"
       cx="-102.10826"
       id="circle4978-5-1"
       style="opacity:1;fill:#ffffff;fill-opacity:1;stroke:none;stroke-width:6.61458254;stroke-linecap:butt;stroke-linejoin:round;stroke-miterlimit:4;stroke-dasharray:none;stroke-opacity:1"
       r="0.46078482"
       transform="scale(-1,1)" />
    <circle
       r="1.0219624"
       style="opacity:1;fill:#ececec;fill-opacity:1;stroke:none;stroke-width:6.61458254;stroke-linecap:butt;stroke-linejoin:round;stroke-miterlimit:4;stroke-dasharray:none;stroke-opacity:1"
       id="circle5044"
       cx="-110.15182"
       cy="139.08516"
       transform="scale(-1,1)" />
    <circle
       r="0.57842261"
       style="opacity:1;fill:#ffffff;fill-opacity:1;stroke:none;stroke-width:6.61458254;stroke-linecap:butt;stroke-linejoin:round;stroke-miterlimit:4;stroke-dasharray:none;stroke-opacity:1"
       id="circle5046"
       cx="-109.9692"
       cy="139.26778"
       transform="scale(-1,1)" />
    <path
       style="opacity:0.403;fill:#803300;fill-opacity:0.92896178;stroke:none;stroke-width:3.96875024;stroke-linecap:butt;stroke-linejoin:round;stroke-miterlimit:4;stroke-dasharray:none;stroke-opacity:1"
       d="m 128.50046,152.15256 c 1.85292,0.51861 4.54869,1.83701 4.54918,3.01094 l 0.0427,100.20254 c 1.4e-4,0.30074 -0.0456,0.5635 -0.1475,0.80286 -0.10181,0.23935 -0.25954,0.45535 -0.48319,0.66254 -0.22365,0.20717 -0.51323,0.40557 -0.87869,0.60976 -0.39136,0.22459 -0.80407,0.46003 -1.31136,0.68806 -0.683,0.28622 -1.31334,0.53428 -1.98664,0.73745 -1.44147,0.45016 -3.21172,0.83899 -3.25534,0.79375 0,0 0.0107,-0.48505 0.0107,-0.59602 l -0.78963,-107.78777 1.06871,0.1591 1.03265,0.20996 1.08845,0.20998 1.06053,0.29685 z"
       id="rect5056-1"
       inkscape:connector-curvature="0"
       sodipodi:nodetypes="ssssscccccccccs" />
    <path
       style="opacity:0.403;fill:#803300;fill-opacity:0.92896178;stroke:none;stroke-width:3.96875024;stroke-linecap:butt;stroke-linejoin:round;stroke-miterlimit:4;stroke-dasharray:none;stroke-opacity:1"
       d="m 158.65827,152.03497 c 1.67871,0.51861 4.121,1.83701 4.12146,3.01097 l 0.0386,100.20255 c 1.2e-4,0.30072 -0.0414,0.56346 -0.13364,0.80282 -0.0921,0.23938 -0.23512,0.45535 -0.43776,0.66255 -0.20262,0.20719 -0.46497,0.40559 -0.79607,0.60978 -0.35454,0.22459 -0.72848,0.46001 -1.18806,0.68803 -0.61877,0.28622 -1.18985,0.53429 -1.79986,0.73746 -1.30591,0.45017 -2.90974,0.839 -2.94926,0.79377 0,0 0.009,-0.48506 0.009,-0.59603 l -0.7154,-107.78779 0.96824,0.15911 0.93555,0.20997 0.98611,0.20998 0.96083,0.29683 z"
       id="rect5056-1-2"
       inkscape:connector-curvature="0"
       sodipodi:nodetypes="ssssscccccccccs" />
    <path
       style="opacity:0.403;fill:#ffff00;fill-opacity:0.92896178;stroke:none;stroke-width:3.96875024;stroke-linecap:butt;stroke-linejoin:round;stroke-miterlimit:4;stroke-dasharray:none;stroke-opacity:1"
       d="m 82.49582,151.90326 c -1.852928,0.51863 -4.548689,1.83706 -4.549187,3.01099 l -0.04267,100.20254 c -1.25e-4,0.30073 0.04668,0.70161 0.148484,0.94099 0.101807,0.23936 0.258556,0.31719 0.482208,0.52439 0.223653,0.20719 0.513226,0.40558 0.878688,0.60978 0.391351,0.22459 0.804077,0.46001 1.311358,0.68803 0.682998,0.28622 1.31335,0.53428 1.986658,0.73745 1.441462,0.45017 3.211699,0.83901 3.255335,0.79378 0,0 -0.01073,-0.48506 -0.01018,-0.59603 l 0.789635,-107.7878 -1.068728,0.15911 -1.032637,0.20998 -1.088451,0.20998 -1.060544,0.29681 z"
       id="rect5056-1-4-6"
       inkscape:connector-curvature="0"
       sodipodi:nodetypes="csssscccccccccsc" />
    <path
       style="opacity:0.403;fill:#ffff00;fill-opacity:0.92896178;stroke:none;stroke-width:3.96875024;stroke-linecap:butt;stroke-linejoin:round;stroke-miterlimit:4;stroke-dasharray:none;stroke-opacity:1"
       d="m 141.9005,152.16038 c -1.85292,0.51864 -4.54868,1.83701 -4.54917,3.01094 l -0.0426,100.20257 c -1.4e-4,0.30073 0.0264,0.67546 0.12816,0.91482 0.10185,0.23938 0.27908,0.34337 0.50257,0.55056 0.22365,0.20717 0.51321,0.40558 0.87866,0.60976 0.39137,0.22461 0.8041,0.46002 1.31138,0.68806 0.68299,0.28621 1.31335,0.53429 1.98664,0.73746 1.44147,0.45014 3.21171,0.83898 3.25535,0.79373 0,0 -0.01,-0.48504 -0.01,-0.59599 l 0.78964,-107.78779 -1.06875,0.15909 -1.03264,0.20998 -1.08844,0.20998 -1.06053,0.29683 z"
       id="rect5056-1-4-6-5"
       inkscape:connector-curvature="0"
       sodipodi:nodetypes="csssscccccccccsc" />
    <flowRoot
       xml:space="preserve"
       id="flowRoot1458"
       style="font-style:normal;font-weight:normal;font-size:192px;line-height:1.25;font-family:sans-serif;letter-spacing:0px;word-spacing:0px;fill:#000000;fill-opacity:1;stroke:none"><flowRegion
         id="flowRegion1460"
         style="font-size:192px"><rect
           id="rect1462"
           width="390"
           height="462"
           x="566"
           y="217.70081"
           style="font-size:192px" /></flowRegion><flowPara
         id="flowPara1464" /></flowRoot>    <text
       xml:space="preserve"
       style="font-style:normal;font-variant:normal;font-weight:normal;font-stretch:normal;font-size:122.16413879px;line-height:1.25;font-family:'DejaVu Serif';-inkscape-font-specification:'DejaVu Serif, Normal';font-variant-ligatures:normal;font-variant-caps:normal;font-variant-numeric:normal;font-feature-settings:normal;text-align:center;letter-spacing:0px;word-spacing:0px;writing-mode:lr-tb;text-anchor:middle;opacity:0.97100004;fill:#000000;fill-opacity:1;stroke:#ef9a00;stroke-width:1.86500013;stroke-linecap:butt;stroke-linejoin:round;stroke-miterlimit:4;stroke-dasharray:none;stroke-opacity:1"
       x="406.5141"
       y="228.37941"
       id="text2109"
       transform="scale(0.92491262,1.0811832)"><tspan
         sodipodi:role="line"
         id="tspan2107"
         x="401.51297"
         y="228.37941"
         style="font-style:normal;font-variant:normal;font-weight:bold;font-stretch:normal;font-size:122.16262054px;font-family:'DejaVu Serif';-inkscape-font-specification:'DejaVu Serif, Bold';font-variant-ligatures:normal;font-variant-caps:normal;font-variant-numeric:normal;font-feature-settings:normal;text-align:center;letter-spacing:-10.00226402px;writing-mode:lr-tb;text-anchor:middle;opacity:1;fill:#000000;stroke:#ef9a00;stroke-width:1.86500013;stroke-linecap:butt;stroke-linejoin:round;stroke-miterlimit:4;stroke-dasharray:none;stroke-opacity:1"
         dx="0.044555061">PRoST</tspan></text>
  </g>
</svg>
